<?xml version="1.0" encoding="UTF-8"?>
<svg xmlns="http://www.w3.org/2000/svg" xmlns:xlink="http://www.w3.org/1999/xlink" width="64pt" height="64pt" viewBox="0 0 64 64" version="1.1">
<g id="surface1">
<path style=" stroke:none;fill-rule:nonzero;fill:rgb(0%,0%,0%);fill-opacity:1;" d="M 54.625 9.378906 C 42.121094 -3.125 21.882812 -3.125 9.378906 9.378906 C -3.125 21.882812 -3.125 42.117188 9.378906 54.625 C 18.25 63.496094 30.980469 66.046875 42.0625 62.378906 C 43.4375 61.921875 44.1875 60.4375 43.730469 59.058594 C 43.273438 57.679688 41.789062 56.933594 40.410156 57.390625 C 23.113281 63.117188 5.261719 50.167969 5.261719 32 C 5.261719 17.257812 17.257812 5.261719 32 5.261719 C 50.148438 5.261719 63.121094 23.097656 57.390625 40.410156 C 56.933594 41.789062 57.679688 43.273438 59.058594 43.730469 C 60.4375 44.1875 61.921875 43.441406 62.378906 42.0625 C 66.039062 31.007812 63.519531 18.273438 54.625 9.378906 Z M 54.625 9.378906 "/>
<path style=" stroke:none;fill-rule:nonzero;fill:rgb(0%,0%,0%);fill-opacity:1;" d="M 29.609375 20.582031 C 27.886719 19.242188 25.367188 20.476562 25.367188 22.65625 L 25.367188 41.34375 C 25.367188 43.527344 27.886719 44.761719 29.609375 43.417969 L 41.621094 34.074219 C 42.972656 33.023438 42.976562 30.980469 41.621094 29.925781 Z M 30.625 35.972656 L 30.625 28.03125 L 35.730469 32 Z M 30.625 35.972656 "/>
<path style=" stroke:none;fill-rule:nonzero;fill:rgb(0%,0%,0%);fill-opacity:1;" d="M 57.65625 46.390625 C 56.628906 45.363281 54.964844 45.363281 53.941406 46.390625 L 52.023438 48.304688 L 50.105469 46.390625 C 49.078125 45.363281 47.414062 45.363281 46.390625 46.390625 C 45.363281 47.414062 45.363281 49.078125 46.390625 50.105469 L 48.304688 52.023438 L 46.390625 53.941406 C 45.363281 54.964844 45.363281 56.628906 46.390625 57.65625 C 47.414062 58.683594 49.078125 58.683594 50.105469 57.65625 L 52.023438 55.738281 L 53.941406 57.65625 C 54.964844 58.683594 56.628906 58.683594 57.65625 57.65625 C 58.683594 56.628906 58.683594 54.964844 57.65625 53.941406 L 55.738281 52.023438 L 57.65625 50.105469 C 58.683594 49.078125 58.683594 47.414062 57.65625 46.390625 Z M 57.65625 46.390625 "/>
</g>
</svg>
