<?xml version="1.0" encoding="UTF-8"?>
<svg xmlns="http://www.w3.org/2000/svg" xmlns:xlink="http://www.w3.org/1999/xlink" width="64pt" height="64pt" viewBox="0 0 64 64" version="1.1">
<g id="surface1">
<path style=" stroke:none;fill-rule:nonzero;fill:rgb(0%,0%,0%);fill-opacity:1;" d="M 54.621094 9.378906 C 42.121094 -3.125 21.882812 -3.125 9.378906 9.378906 C -3.125 21.878906 -3.125 42.117188 9.378906 54.621094 C 21.878906 67.125 42.117188 67.125 54.621094 54.621094 C 67.125 42.121094 67.125 21.882812 54.621094 9.378906 Z M 32 58.738281 C 17.257812 58.738281 5.261719 46.742188 5.261719 32 C 5.261719 17.257812 17.257812 5.261719 32 5.261719 C 46.742188 5.261719 58.738281 17.257812 58.738281 32 C 58.738281 46.742188 46.742188 58.738281 32 58.738281 Z M 32 58.738281 "/>
<path style=" stroke:none;fill-rule:nonzero;fill:rgb(0%,0%,0%);fill-opacity:1;" d="M 37.339844 20.027344 C 35.886719 20.027344 34.710938 21.207031 34.710938 22.65625 L 34.710938 41.34375 C 34.710938 42.792969 35.886719 43.972656 37.339844 43.972656 C 38.789062 43.972656 39.96875 42.792969 39.96875 41.34375 L 39.96875 22.65625 C 39.96875 21.207031 38.789062 20.027344 37.339844 20.027344 Z M 37.339844 20.027344 "/>
<path style=" stroke:none;fill-rule:nonzero;fill:rgb(0%,0%,0%);fill-opacity:1;" d="M 26.660156 20.027344 C 25.210938 20.027344 24.03125 21.207031 24.03125 22.65625 L 24.03125 41.34375 C 24.03125 42.792969 25.210938 43.972656 26.660156 43.972656 C 28.113281 43.972656 29.289062 42.792969 29.289062 41.34375 L 29.289062 22.65625 C 29.289062 21.207031 28.113281 20.027344 26.660156 20.027344 Z M 26.660156 20.027344 "/>
</g>
</svg>
