<?xml version="1.0" encoding="UTF-8"?>
<svg xmlns="http://www.w3.org/2000/svg" xmlns:xlink="http://www.w3.org/1999/xlink" width="64pt" height="64pt" viewBox="0 0 64 64" version="1.1">
<g id="surface1">
<path style=" stroke:none;fill-rule:nonzero;fill:rgb(0%,0%,0%);fill-opacity:1;" d="M 32 0 C 14.300781 0 0 14.285156 0 32 C 0 49.714844 14.285156 64 32 64 C 49.714844 64 64 49.714844 64 32 C 64 14.285156 49.699219 0 32 0 Z M 32 59.722656 C 16.640625 59.722656 4.277344 47.355469 4.277344 32 C 4.277344 16.640625 16.644531 4.277344 32 4.277344 C 47.355469 4.277344 59.722656 16.640625 59.722656 32 C 59.722656 47.355469 47.359375 59.722656 32 59.722656 Z M 32 59.722656 "/>
<path style=" stroke:none;fill-rule:nonzero;fill:rgb(0%,0%,0%);fill-opacity:1;" d="M 41.386719 18.140625 L 22.824219 18.140625 C 20.269531 18.140625 18.140625 20.269531 18.140625 22.824219 L 18.140625 41.386719 C 18.140625 43.941406 20.269531 46.070312 22.824219 46.070312 L 41.386719 46.070312 C 43.941406 46.070312 46.070312 43.941406 46.070312 41.386719 L 46.070312 22.824219 C 46.070312 20.269531 43.941406 18.140625 41.386719 18.140625 Z M 41.597656 41.175781 C 41.597656 41.386719 41.386719 41.597656 41.175781 41.597656 L 22.613281 41.597656 C 22.402344 41.597656 22.191406 41.386719 22.191406 41.175781 L 22.191406 22.613281 C 22.191406 22.402344 22.402344 22.191406 22.613281 22.191406 L 41.175781 22.191406 C 41.386719 22.191406 41.597656 22.402344 41.597656 22.613281 Z M 41.597656 41.175781 "/>
</g>
</svg>
