<?xml version="1.0" encoding="UTF-8"?>
<svg xmlns="http://www.w3.org/2000/svg" xmlns:xlink="http://www.w3.org/1999/xlink" width="64pt" height="64pt" viewBox="0 0 64 64" version="1.1">
<g id="surface1">
<path style=" stroke:none;fill-rule:nonzero;fill:rgb(0%,0%,0%);fill-opacity:1;" d="M 54.621094 9.378906 C 42.121094 -3.125 21.882812 -3.125 9.378906 9.378906 C -3.125 21.878906 -3.125 42.117188 9.378906 54.621094 C 21.878906 67.125 42.117188 67.125 54.621094 54.621094 C 67.125 42.121094 67.128906 21.882812 54.621094 9.378906 Z M 32 58.738281 C 17.257812 58.738281 5.261719 46.742188 5.261719 32 C 5.261719 17.257812 17.257812 5.261719 32 5.261719 C 46.742188 5.261719 58.738281 17.257812 58.738281 32 C 58.738281 46.742188 46.742188 58.738281 32 58.738281 Z M 32 58.738281 "/>
<path style=" stroke:none;fill-rule:nonzero;fill:rgb(0%,0%,0%);fill-opacity:1;" d="M 49.679688 29.964844 L 35 17.953125 C 33.285156 16.550781 30.707031 17.773438 30.707031 19.988281 L 30.707031 26.453125 L 20.316406 17.953125 C 18.601562 16.550781 16.023438 17.773438 16.023438 19.988281 L 16.023438 44.011719 C 16.023438 46.238281 18.617188 47.4375 20.316406 46.046875 L 30.707031 37.546875 L 30.707031 44.011719 C 30.707031 46.222656 33.285156 47.449219 35 46.046875 L 49.679688 34.035156 C 50.960938 32.988281 50.96875 31.019531 49.679688 29.964844 Z M 21.28125 38.46875 L 21.28125 25.53125 L 29.183594 32 Z M 35.960938 38.46875 L 35.960938 25.53125 L 43.867188 32 Z M 35.960938 38.46875 "/>
</g>
</svg>
