<?xml version="1.0" encoding="UTF-8"?>
<svg xmlns="http://www.w3.org/2000/svg" xmlns:xlink="http://www.w3.org/1999/xlink" width="64pt" height="64pt" viewBox="0 0 64 64" version="1.1">
<g id="surface1">
<path style=" stroke:none;fill-rule:nonzero;fill:rgb(0%,0%,0%);fill-opacity:1;" d="M 54.621094 9.378906 C 42.121094 -3.125 21.882812 -3.125 9.378906 9.378906 C -3.125 21.878906 -3.125 42.117188 9.378906 54.621094 C 21.878906 67.125 42.117188 67.125 54.621094 54.621094 C 67.125 42.121094 67.128906 21.882812 54.621094 9.378906 Z M 32 58.738281 C 17.257812 58.738281 5.261719 46.742188 5.261719 32 C 5.261719 17.257812 17.257812 5.261719 32 5.261719 C 46.742188 5.261719 58.738281 17.257812 58.738281 32 C 58.738281 46.742188 46.742188 58.738281 32 58.738281 Z M 32 58.738281 "/>
<path style=" stroke:none;fill-rule:nonzero;fill:rgb(0%,0%,0%);fill-opacity:1;" d="M 49.875 26.136719 C 48.847656 25.109375 47.183594 25.109375 46.160156 26.136719 L 44.011719 28.285156 L 41.867188 26.136719 C 40.839844 25.109375 39.175781 25.109375 38.152344 26.136719 C 37.125 27.164062 37.125 28.828125 38.152344 29.855469 L 40.296875 32 L 38.152344 34.144531 C 37.125 35.171875 37.125 36.835938 38.152344 37.863281 C 39.175781 38.890625 40.839844 38.890625 41.867188 37.863281 L 44.011719 35.714844 L 46.160156 37.863281 C 47.183594 38.890625 48.847656 38.890625 49.875 37.863281 C 50.902344 36.835938 50.902344 35.171875 49.875 34.144531 L 47.730469 32 L 49.875 29.855469 C 50.902344 28.828125 50.902344 27.164062 49.875 26.136719 Z M 49.875 26.136719 "/>
<path style=" stroke:none;fill-rule:nonzero;fill:rgb(0%,0%,0%);fill-opacity:1;" d="M 29.136719 16.515625 L 20.480469 22.699219 L 15.984375 22.699219 C 14.53125 22.699219 13.355469 23.875 13.355469 25.324219 L 13.355469 38.671875 C 13.355469 40.125 14.53125 41.300781 15.984375 41.300781 L 20.480469 41.300781 L 29.136719 47.484375 C 30.875 48.726562 33.292969 47.484375 33.292969 45.347656 L 33.292969 18.652344 C 33.292969 16.519531 30.875 15.273438 29.136719 16.515625 Z M 28.039062 40.242188 L 22.847656 36.535156 C 21.960938 35.902344 21.382812 36.046875 18.609375 36.046875 L 18.609375 27.953125 C 21.320312 27.953125 21.957031 28.101562 22.847656 27.464844 L 28.039062 23.757812 Z M 28.039062 40.242188 "/>
</g>
</svg>
