<?xml version="1.0" encoding="UTF-8"?>
<svg xmlns="http://www.w3.org/2000/svg" xmlns:xlink="http://www.w3.org/1999/xlink" width="64pt" height="64pt" viewBox="0 0 64 64" version="1.1">
<g id="surface1">
<path style=" stroke:none;fill-rule:nonzero;fill:rgb(0%,0%,0%);fill-opacity:1;" d="M 54.621094 9.378906 C 42.121094 -3.125 21.882812 -3.125 9.378906 9.378906 C -3.125 21.878906 -3.125 42.117188 9.378906 54.621094 C 21.878906 67.125 42.117188 67.125 54.621094 54.621094 C 67.125 42.121094 67.125 21.882812 54.621094 9.378906 Z M 32 58.738281 C 17.257812 58.738281 5.261719 46.742188 5.261719 32 C 5.261719 17.257812 17.257812 5.261719 32 5.261719 C 46.742188 5.261719 58.738281 17.257812 58.738281 32 C 58.738281 46.742188 46.742188 58.738281 32 58.738281 Z M 32 58.738281 "/>
<path style=" stroke:none;fill-rule:nonzero;fill:rgb(0%,0%,0%);fill-opacity:1;" d="M 43.683594 17.953125 L 33.292969 26.453125 L 33.292969 19.988281 C 33.292969 17.773438 30.714844 16.550781 29 17.953125 L 14.320312 29.964844 C 13.039062 31.011719 13.03125 32.980469 14.320312 34.035156 L 29 46.046875 C 30.703125 47.4375 33.292969 46.234375 33.292969 44.011719 L 33.292969 37.546875 L 43.683594 46.046875 C 45.394531 47.449219 47.976562 46.226562 47.976562 44.011719 L 47.976562 19.988281 C 47.976562 17.773438 45.394531 16.550781 43.683594 17.953125 Z M 28.039062 38.46875 L 20.132812 32 L 28.039062 25.53125 Z M 42.71875 38.46875 L 34.816406 32 L 42.71875 25.53125 Z M 42.71875 38.46875 "/>
</g>
</svg>
