<?xml version="1.0" encoding="UTF-8"?>
<svg xmlns="http://www.w3.org/2000/svg" xmlns:xlink="http://www.w3.org/1999/xlink" width="64pt" height="64pt" viewBox="0 0 64 64" version="1.1">
<g id="surface1">
<path style=" stroke:none;fill-rule:nonzero;fill:rgb(0%,0%,0%);fill-opacity:1;" d="M 54.621094 9.378906 C 42.121094 -3.125 21.882812 -3.125 9.378906 9.378906 C -3.125 21.878906 -3.125 42.117188 9.378906 54.621094 C 21.878906 67.125 42.117188 67.125 54.621094 54.621094 C 67.125 42.121094 67.125 21.882812 54.621094 9.378906 Z M 32 58.738281 C 17.257812 58.738281 5.261719 46.742188 5.261719 32 C 5.261719 17.257812 17.257812 5.261719 32 5.261719 C 46.742188 5.261719 58.738281 17.257812 58.738281 32 C 58.738281 46.742188 46.742188 58.738281 32 58.738281 Z M 32 58.738281 "/>
<path style=" stroke:none;fill-rule:nonzero;fill:rgb(0%,0%,0%);fill-opacity:1;" d="M 29.136719 16.515625 L 20.480469 22.699219 L 15.984375 22.699219 C 14.53125 22.699219 13.355469 23.875 13.355469 25.324219 L 13.355469 38.675781 C 13.355469 40.125 14.53125 41.300781 15.984375 41.300781 L 20.480469 41.300781 L 29.136719 47.484375 C 30.875 48.726562 33.292969 47.484375 33.292969 45.347656 L 33.292969 18.652344 C 33.292969 16.519531 30.875 15.273438 29.136719 16.515625 Z M 28.039062 40.242188 L 22.847656 36.535156 C 21.960938 35.902344 21.382812 36.046875 18.609375 36.046875 L 18.609375 27.953125 C 21.320312 27.953125 21.957031 28.101562 22.847656 27.464844 L 28.039062 23.757812 Z M 28.039062 40.242188 "/>
<path style=" stroke:none;fill-rule:nonzero;fill:rgb(0%,0%,0%);fill-opacity:1;" d="M 45.738281 16.929688 C 44.710938 15.902344 43.046875 15.902344 42.019531 16.929688 C 40.996094 17.953125 40.996094 19.617188 42.019531 20.644531 C 48.28125 26.90625 48.28125 37.09375 42.019531 43.355469 C 40.996094 44.382812 40.996094 46.046875 42.019531 47.070312 C 43.046875 48.097656 44.710938 48.097656 45.738281 47.070312 C 54.046875 38.761719 54.046875 25.238281 45.738281 16.929688 Z M 45.738281 16.929688 "/>
<path style=" stroke:none;fill-rule:nonzero;fill:rgb(0%,0%,0%);fill-opacity:1;" d="M 40.074219 22.589844 C 39.046875 21.566406 37.382812 21.566406 36.359375 22.589844 C 35.332031 23.617188 35.332031 25.28125 36.359375 26.308594 C 39.503906 29.453125 39.503906 34.546875 36.359375 37.691406 C 34.695312 39.351562 35.894531 42.179688 38.214844 42.179688 C 38.886719 42.179688 39.5625 41.921875 40.074219 41.410156 C 45.273438 36.207031 45.273438 27.792969 40.074219 22.589844 Z M 40.074219 22.589844 "/>
</g>
</svg>
